PathFileType	4	(X/Y/Z)	C:/Users/opensim2020/Desktop/walking_exp_matlab/subject02_walking07_straight_01.trc																																																																																																																																																				
DataRate	CameraRate	NumFrames	NumMarkers	Units	OrigDataRate	OrigDataStartFrame	OrigNumFrames																																																																																																																																																
100	100	6	50	mm	100	670	176																																																																																																																																																
Frame#	Time	LFHD			RFHD			LBHD			RBHD			C7			T10			CLAV			STRN			RBAK			LSHO			LUPA			LELB			LFRM			LWRA			LWRB			LFIN			RSHO			RUPA			RELB			RFRM			RWRA			RWRB			RFIN			LASI			RASI			LPSI			RPSI			LTHI			LKNE			LTIB			LANK			LHEE			LTOE			RTHI			RKNE			RTIB			RANK			RHEE			RTOE			*39			*40			*41			*42			*43			*44			*45			*46			*47			*48			*49		
		X1	Y1	Z1	X2	Y2	Z2	X3	Y3	Z3	X4	Y4	Z4	X5	Y5	Z5	X6	Y6	Z6	X7	Y7	Z7	X8	Y8	Z8	X9	Y9	Z9	X10	Y10	Z10	X11	Y11	Z11	X12	Y12	Z12	X13	Y13	Z13	X14	Y14	Z14	X15	Y15	Z15	X16	Y16	Z16	X17	Y17	Z17	X18	Y18	Z18	X19	Y19	Z19	X20	Y20	Z20	X21	Y21	Z21	X22	Y22	Z22	X23	Y23	Z23	X24	Y24	Z24	X25	Y25	Z25	X26	Y26	Z26	X27	Y27	Z27	X28	Y28	Z28	X29	Y29	Z29	X30	Y30	Z30	X31	Y31	Z31	X32	Y32	Z32	X33	Y33	Z33	X34	Y34	Z34	X35	Y35	Z35	X36	Y36	Z36	X37	Y37	Z37	X38	Y38	Z38	X39	Y39	Z39	X40	Y40	Z40	X41	Y41	Z41	X42	Y42	Z42	X43	Y43	Z43	X44	Y44	Z44	X45	Y45	Z45	X46	Y46	Z46	X47	Y47	Z47	X48	Y48	Z48	X49	Y49	Z49	X50	Y50	Z50
																																																																																																																																																							
23	0.22	-761.90765	1741.6084	1422.48938	-768.41168	1716.75171	1564.56201	-882.37469	1654.09546	1403.0437	-901.68835	1626.62805	1542.73767	-932.74738	1515.93384	1472.31567	-990.34625	1242.6239	1480.23206	-796.14941	1447.01196	1455.40186	-747.27747	1272.87463	1458.95044	-990.14691	1342.83289	1537.16455	-867.63837	1492.92944	1288.60254	-890.03912	1293.56287	1205.70825	-900.88959	1152.97278	1196.50854	-905.61597	1023.06732	1176.86218	-863.58441	889.90387	1201.91919	-907.46246	900.33197	1168.40747	-899.47491	833.79272	1163.38843	-847.3559	1477.58508	1655.66553	-887.07599	1289.85156	1738.96985	-886.45032	1143.24939	1753.86523	-870.48944	1025.58655	1776.27161	-836.8233	893.24854	1759.18323	-882.88641	896.45587	1792.18433	-854.38208	829.31171	1795.32568	-784.52185	967.27173	1332.46851	-754.97205	967.8291	1583.1604	-980.67816	1022.94739	1431.34485	-972.75836	1030.71753	1547.39087	-857.5484	654.17719	1277.78296	-883.1853	469.79764	1294.49719	-1036.33057	365.38651	1312.16125	-1175.41113	196.87976	1350.34583	-1204.89282	192.7124	1412.05615	-1107.7124	62.87289	1308.29834	-785.29047	672.38501	1660.63403	-762.70135	464.33911	1615.3114	-795.61639	277.34241	1623.23254	-815.659	86.01311	1584.65381	-851.69489	31.98242	1528.90967	-663.961	34.60127	1596.77783	-874.77325	1792.00244	1508.58777	2845.20996	1034.16638	-3360.177	NaN	NaN	NaN	NaN	NaN	NaN	NaN	NaN	NaN	NaN	NaN	NaN	NaN	NaN	NaN	NaN	NaN	NaN	NaN	NaN	NaN	NaN	NaN	NaN	NaN	NaN	NaN
24	0.23	-753.11823	1742.86438	1423.54114	-759.39642	1718.37354	1565.63184	-873.48468	1655.14661	1404.44812	-892.65833	1628.06909	1544.18555	-923.50323	1517.37012	1474.25879	-981.75854	1244.28296	1482.95032	-787.30835	1448.17334	1456.87708	-738.53546	1273.9845	1460.73914	-981.49304	1344.88086	1540.03271	-859.47162	1493.84485	1290.2489	-885.07428	1294.74121	1207.69922	-897.59039	1154.40918	1198.7998	-905.54028	1024.97009	1178.55493	-867.26306	890.40588	1202.87976	-910.68695	902.38049	1169.30408	-904.9967	835.33582	1164.44128	-837.2309	1479.2417	1657.41333	-875.46887	1291.26379	1741.41711	-873.79999	1144.71863	1756.62964	-856.07941	1027.07507	1778.51624	-820.65582	895.32251	1760.92737	-866.49701	897.80029	1794.32483	-836.74084	831.20801	1797.2511	-776.76404	968.74854	1333.5293	-747.37823	967.99738	1584.76794	-972.5639	1024.33472	1433.72375	-964.96228	1032.01709	1549.50989	-843.66748	655.89331	1278.68616	-864.93054	471.9696	1295.8363	-1016.99353	367.21671	1315.73181	-1155.29919	198.10239	1354.4502	-1184.54224	192.35051	1416.03796	-1085.84937	66.29288	1309.52661	-779.86407	672.4007	1662.276	-760.75641	464.01422	1616.44763	-795.62177	277.38959	1623.65625	-815.81494	86.12319	1584.53162	-851.97644	32.33204	1529.21216	-663.96771	34.51403	1596.84485	-865.91028	1793.37073	1509.60852	2845.24707	1033.99524	-3360.33374	NaN	NaN	NaN	NaN	NaN	NaN	NaN	NaN	NaN	NaN	NaN	NaN	NaN	NaN	NaN	NaN	NaN	NaN	NaN	NaN	NaN	NaN	NaN	NaN	NaN	NaN	NaN
25	0.24	-744.40527	1744.16064	1424.42786	-750.41022	1719.84631	1566.58105	-864.72205	1656.27893	1405.69971	-883.57178	1629.37671	1545.49854	-914.57092	1518.76868	1476.20691	-973.24207	1245.95837	1485.62024	-778.45148	1449.28198	1458.22424	-730.0304	1275.0708	1462.25012	-972.30847	1346.80029	1542.97034	-851.34778	1494.7395	1291.87329	-879.97064	1296.01379	1209.48279	-895.00372	1156.18469	1200.76672	-905.12329	1026.90344	1180.32922	-869.8703	891.45288	1204.16882	-913.33148	904.58386	1170.22498	-909.71576	837.11548	1165.5708	-827.18658	1480.89124	1658.91357	-863.97559	1292.92883	1743.80945	-861.05865	1146.22131	1759.40332	-841.42725	1028.76538	1780.93811	-804.00494	897.73712	1762.78943	-849.86108	899.35638	1796.4397	-818.73138	833.37531	1799.14172	-769.17255	969.88989	1334.3739	-738.73322	968.99597	1586.95825	-964.60883	1025.68823	1436.0426	-957.1203	1033.11206	1551.56445	-830.05988	658.38544	1279.27136	-846.64459	474.08582	1297.20874	-997.77838	368.75995	1318.8269	-1134.33411	198.13777	1358.06116	-1163.55347	191.70262	1419.93481	-1062.57764	68.46545	1311.76819	-775.13464	672.43256	1663.5437	-759.16846	463.54041	1617.25623	-795.77527	277.42682	1623.96716	-815.8595	86.09494	1584.35498	-851.99646	32.3577	1529.10291	-663.97534	34.54552	1596.9021	-857.09241	1794.79492	1510.5752	2845.83179	1034.06873	-3357.12622	NaN	NaN	NaN	NaN	NaN	NaN	NaN	NaN	NaN	NaN	NaN	NaN	NaN	NaN	NaN	NaN	NaN	NaN	NaN	NaN	NaN	NaN	NaN	NaN	NaN	NaN	NaN
26	0.25	-735.4411	1745.40308	1425.41956	-741.41742	1721.22485	1567.3811	-855.91827	1657.2738	1406.82544	-874.56775	1630.68311	1546.75452	-905.71216	1520.0343	1478.04199	-964.79449	1247.49866	1488.18689	-769.62402	1450.34741	1459.52283	-721.94629	1275.89587	1463.43506	-963.67242	1348.60376	1545.60315	-843.24237	1495.61658	1293.43433	-874.7793	1297.54016	1211.54102	-892.34106	1158.10876	1202.73987	-905.133	1029.30273	1181.79456	-871.67505	892.94556	1205.42688	-915.69452	906.89734	1171.14185	-913.57172	839.3916	1166.59253	-817.35022	1482.55933	1660.22119	-852.30652	1294.48547	1745.9502	-848.12665	1147.77563	1762.09937	-826.58759	1030.51538	1783.08533	-787.3078	900.18829	1764.41309	-832.8927	900.96747	1798.42542	-800.46991	835.6936	1800.91711	-761.60858	971.24182	1335.45361	-731.22736	969.86841	1588.60559	-956.73846	1027.0658	1438.24451	-949.40533	1034.04688	1553.60205	-816.26703	660.51141	1280.04761	-828.76685	476.24973	1298.31274	-978.7536	369.88831	1321.68567	-1112.77795	197.0006	1361.37952	-1141.9624	189.87672	1423.24133	-1038.01709	69.63784	1314.53699	-771.53851	672.48669	1664.58533	-757.34076	463.48654	1618.35461	-795.68549	277.47314	1624.35608	-815.83154	86.13795	1584.26221	-851.98315	32.39603	1529.02686	-663.82745	34.28925	1596.9137	-848.21204	1795.8811	1511.4364	2845.71509	1034.15405	-3357.11987	NaN	NaN	NaN	NaN	NaN	NaN	NaN	NaN	NaN	NaN	NaN	NaN	NaN	NaN	NaN	NaN	NaN	NaN	NaN	NaN	NaN	NaN	NaN	NaN	NaN	NaN	NaN
27	0.26	-726.88867	1746.33997	1425.88416	-732.38171	1722.53809	1568.10254	-847.28882	1658.28687	1407.87354	-865.63422	1631.95801	1547.89063	-896.96265	1521.25183	1479.80139	-956.37604	1248.98193	1490.56824	-760.93695	1451.28333	1460.65613	-713.42273	1276.8949	1464.87073	-954.81744	1350.58044	1548.40979	-835.63135	1496.63965	1295.11096	-869.8797	1298.74841	1213.23669	-889.72119	1160.03589	1204.64075	-905.78357	1032.04077	1182.65198	-874.56	894.5412	1205.72192	-918.12	909.62927	1172.27441	-917.63574	841.75897	1167.62122	-807.2981	1484.24329	1661.53223	-840.72528	1296.16687	1748.13513	-835.20752	1149.42371	1764.7616	-811.6828	1032.34277	1785.17285	-770.65448	902.73901	1765.75317	-815.72809	902.72791	1800.35754	-781.98578	838.08069	1802.51038	-753.74103	972.74609	1336.52014	-723.42175	971.15631	1590.43665	-948.948	1028.38867	1440.32336	-941.57208	1034.78906	1555.46082	-802.94781	662.849	1280.85046	-811.48578	478.34933	1299.27686	-959.65186	370.46194	1324.19543	-1090.45093	194.86096	1364.29956	-1119.93481	187.3586	1426.297	-1012.16498	69.81777	1317.83716	-769.06067	671.87097	1664.85864	-755.78412	463.11862	1618.93701	-795.26648	277.50409	1624.79932	-815.79303	86.31345	1584.33228	-851.99567	32.5062	1528.95215	-663.73248	34.16232	1596.88306	-839.27271	1796.9375	1512.16309	2845.15503	1034.07556	-3360.24829	NaN	NaN	NaN	NaN	NaN	NaN	NaN	NaN	NaN	NaN	NaN	NaN	NaN	NaN	NaN	NaN	NaN	NaN	NaN	NaN	NaN	NaN	NaN	NaN	NaN	NaN	NaN
28	0.27	-718.25195	1747.27124	1426.34753	-723.40997	1723.78516	1568.67285	-838.62445	1659.21484	1408.88794	-856.70929	1633.20496	1548.93323	-888.26971	1522.43555	1481.47034	-948.09387	1250.38098	1492.85474	-752.27795	1452.23022	1461.79517	-705.33099	1277.72302	1466.01331	-945.80927	1351.7981	1550.52295	-827.80743	1497.52917	1296.60205	-864.6886	1300.17822	1214.92346	-886.62701	1161.90442	1206.6333	-904.79663	1034.0752	1184.44836	-876.25562	895.83557	1207.00293	-920.06232	912.17084	1173.30469	-920.47382	844.15314	1168.7196	-797.63495	1485.89539	1662.58118	-829.23236	1297.90515	1750.21216	-822.0451	1151.08057	1767.29675	-796.54047	1034.28857	1787.16187	-753.42303	905.57336	1767.26392	-798.41656	904.58679	1802.14563	-763.36792	840.62091	1803.97839	-745.70569	974.33875	1337.84595	-715.9151	972.44318	1592.09875	-941.14233	1029.62781	1442.13464	-933.77679	1035.45105	1557.1925	-789.77209	665.05475	1281.67126	-794.43359	480.36011	1300.27869	-940.45764	370.32178	1326.28345	-1067.53699	191.6721	1367.0896	-1096.97827	183.41124	1428.88684	-985.3504	69.25186	1321.25488	-765.71179	671.89594	1665.45935	-753.73035	463.17932	1619.97461	-794.34967	277.50677	1625.35547	-815.6311	86.32938	1584.24255	-851.97876	32.56941	1528.95093	-663.65393	34.02663	1596.9126	-830.39832	1798.21387	1512.83813	2845.94067	1033.95557	-3357.27783	NaN	NaN	NaN	NaN	NaN	NaN	NaN	NaN	NaN	NaN	NaN	NaN	NaN	NaN	NaN	NaN	NaN	NaN	NaN	NaN	NaN	NaN	NaN	NaN	NaN	NaN	NaN
